<?xml version="1.0" encoding="UTF-8"?>
<svg id="Layer_2" data-name="Layer 2" xmlns="http://www.w3.org/2000/svg" xmlns:xlink="http://www.w3.org/1999/xlink" viewBox="0 0 1544.17 542.3">
  <defs>
    <style>
      .cls-1 {
        fill: #fff;
      }

      .cls-2 {
        fill: none;
      }

      .cls-3 {
        clip-path: url(#clippath-1);
      }

      .cls-4 {
        clip-path: url(#clippath);
      }
    </style>
    <clipPath id="clippath">
      <rect class="cls-2" width="1544.17" height="542.3"/>
    </clipPath>
    <clipPath id="clippath-1">
      <rect class="cls-2" x="-190.16" y="-269.65" width="1920" height="1080"/>
    </clipPath>
  </defs>
  <g id="Layer_1-2" data-name="Layer 1">
    <g class="cls-4">
      <g class="cls-3">
        <path class="cls-1" d="M878.08,341.1c-7.47-6.74-17.21-10.16-28.96-10.16-5.36,0-10.83.94-16.26,2.79-5.51,1.88-10.19,4.41-13.93,7.54-4.56,3.82-6.87,8.33-6.87,13.41,0,3.32.97,6.08,2.87,8.2,1.42,1.58,3.99,3.47,8.18,3.47,4.77,0,8.83-2.11,11.44-5.93,1.71-2.51,3.33-5.39,4.8-8.56,1.03-2.21,2.48-4.23,4.32-6,1.23-1.18,3.43-1.8,6.37-1.8,7.84,0,14.05,2.23,18.97,6.81,5.2,4.84,9.03,11.27,11.41,19.11,2.47,8.19,3.49,17.01,3.01,26.2-.48,9.18-2.51,17.99-6.04,26.19-3.42,7.95-8.32,14.49-14.54,19.43-5.94,4.71-13.48,7.11-22.41,7.11-6.68,0-12.83-1.4-18.28-4.17-5.61-2.85-11.43-7.71-17.31-14.44-6.16-7.05-13.11-16.75-20.66-28.83-7.68-12.29-16.75-27.84-26.95-46.2l-16.04-28.68c-2.89-5.54-6.07-10.29-9.45-14.12-3.4-3.85-7.53-6.94-12.3-9.21,1.38-.63,2.73-1.29,4.02-1.98,8.44-4.5,15.53-10.45,21.07-17.69,5.48-7.15,9.61-15.51,12.27-24.84,2.61-9.15,3.94-19.47,3.94-30.7s-1.66-22.73-4.93-32.76c-3.33-10.22-8.53-19.3-15.44-27-6.98-7.77-16.06-13.85-26.98-18.09-10.75-4.16-23.74-6.27-38.63-6.27h-55.02v10.79l3.04,1.64c1.3.7,2.06,1.63,2.45,2.99.46,1.63,1.02,5.1,1.02,12.35v172.77c0,7.26-.55,10.72-1.01,12.34-.39,1.38-1.15,2.3-2.44,3l-3.05,1.64v10.79h31.39v-10.8l-3.05-1.63c-1.29-.7-2.04-1.62-2.44-3-.46-1.61-1.02-5.07-1.02-12.34v-32.61h43.75c7.51,0,13.26.51,17.11,1.52,3.29.86,6.04,2.5,8.39,5.01,2.77,2.95,5.93,7.59,9.43,13.8l11.46,19.81c10.65,18.44,20.32,34.69,28.73,48.3,8.46,13.68,16.54,25.16,24.01,34.11,7.76,9.29,15.92,16.31,24.27,20.88,8.57,4.68,18.2,7.06,28.63,7.06,11.61,0,21.68-3.34,29.94-9.94,7.9-6.33,14.19-14.54,18.68-24.42,4.39-9.67,7.01-20.08,7.78-30.94.77-10.88-.35-21.33-3.34-31.05-3.08-10.05-8.28-18.42-15.43-24.89M707.3,293.43c-9.17,3.72-21.25,5.61-35.91,5.61h-26.72v-142.31h30.13c12.56,0,23.2,1.82,31.63,5.42,8.25,3.52,14.94,8.47,19.88,14.69,5.06,6.37,8.82,13.91,11.19,22.41,2.43,8.74,3.66,18.43,3.66,28.8s-1.04,19.29-3.1,28.1c-1.97,8.45-5.43,16.01-10.29,22.45-4.71,6.24-11.59,11.24-20.47,14.84"/>
        <path class="cls-1" d="M919.04,305.35c-.73-.65-1.55-1.6-2.45-2.83-.86-1.17-1.72-2.79-2.57-4.83l-79.53-154.97h-16.75v9.08l.97,1.45c.85,1.29,1.66,2.47,2.39,3.51.16.23.77,1.22,1.99,4.36l2.62,5.15-63.49,128.46c-1.92,4.23-3.58,7.38-4.93,9.36-.8,1.18-1.84,1.93-3.26,2.37l-4.09,1.26v10.99h33.56v-11.86l-5.11-.6c-3.2-.38-4.82-.99-5.68-1.5-.02-.09-.04-.24-.04-.49,0-.39.08-1.07.44-2.08.41-1.16,1.07-2.54,2.06-4.34l21.46-43.53h74.54l25.88,50.12.51.82c.1.13.16.27.19.43.04.2.07.4.1.6-.06.01-.13.03-.2.04l-4.66.93v11.46h31.7v-10.53l-3.51-1.5c-.86-.37-1.57-.81-2.13-1.31M802.92,241.48l30.1-61.04,31.51,61.04h-61.61Z"/>
        <path class="cls-1" d="M503.65,199.2c2.79-8.46,6.78-16.25,11.86-23.15,4.87-6.62,11.38-11.9,19.35-15.7,3.15-1.5,6.62-2.7,10.38-3.62h27.48c5.4,0,9.64.44,12.6,1.31,2.2.65,3.79,1.81,5,3.66,1.06,1.62,2.6,5.01,3.96,12.02l.91,4.69h12.53l-2.67-37.89h-8.73l-1.61,1.35c-.37.31-1.33.76-2.94,1.11-1.35.29-4.19.64-10.07.64h-235.96v12.01l4.93.74c4.17.63,5.64,1.69,5.99,2,.9.8,1.52,2.09,1.89,3.93.54,2.71.82,6.39.82,10.94v126.64c0,9.69-1.16,18.39-3.46,25.86-2.2,7.16-5.61,13.22-10.14,18.01-4.52,4.79-10.34,8.52-17.3,11.08-7.16,2.64-15.76,3.98-25.55,3.98-7.51,0-14.34-.82-20.32-2.43-5.81-1.57-10.97-3.93-15.35-7.03-4.31-3.05-7.95-6.93-10.83-11.52-2.96-4.71-5.21-10.23-6.71-16.4-1.53-6.32-2.31-13.57-2.31-21.55v-125.4c0-4.74.15-8.61.43-11.5.3-2.97.86-4.59,1.27-5.42.4-.81.98-1.4,1.82-1.87l2.97-1.65v-10.42h-31.08v10.42l2.97,1.65c.85.48,1.41,1.05,1.82,1.87.4.79.91,2.34,1.11,5.22.2,3.02.3,6.96.3,11.7v128.5c0,9.14,1,17.51,2.98,24.88,2.02,7.52,5.06,14.27,9.02,20.04,4.02,5.87,9.1,10.83,15.07,14.73,5.88,3.85,12.67,6.77,20.17,8.66,7.36,1.86,15.6,2.81,24.49,2.81,11.52,0,21.79-1.51,30.51-4.49,8.94-3.06,16.55-7.62,22.62-13.58,6.1-5.99,10.75-13.63,13.82-22.71,2.98-8.81,4.48-19.02,4.48-30.34v-130.35c0-7.39.76-11.14,1.39-12.98.38-1.12.96-1.98,1.79-2.67l2.08-.11c1.49-.08,3.02-.12,4.55-.12h35.39v184.95c0,6.79-.33,11.82-.96,14.93-.48,2.33-1.42,3.1-2.18,3.51l-3.04,1.64v10.48h31.08v-10.61l-3.21-1.6c-.94-.47-1.88-1.21-2.33-3.42-.64-3.09-.96-8.11-.96-14.93v-184.95h77c-3.92,2.96-7.45,6.3-10.55,10.02-6.58,7.89-11.85,16.93-15.66,26.86-3.75,9.75-6.46,20.27-8.07,31.28-1.58,10.86-2.38,21.93-2.38,32.88s.8,22.29,2.38,33.04c1.6,10.91,4.32,21.38,8.06,31.11,3.82,9.95,9.1,18.95,15.69,26.74,6.74,7.98,15.41,14.33,25.77,18.9,10.3,4.54,22.6,6.84,36.55,6.84,7.21,0,14.17-.78,20.68-2.32,6.79-1.61,13.16-4.53,18.92-8.67l2.41-1.73v-15.54l-9.07,6.26c-5.31,3.66-10.73,6.06-16.12,7.14-5.79,1.16-11.45,1.74-16.82,1.74-11.67,0-21.67-1.95-29.71-5.79-7.96-3.79-14.47-9.07-19.35-15.7-5.08-6.89-9.06-14.78-11.85-23.42-2.86-8.89-4.86-18.45-5.95-28.42-1.11-10.14-1.67-20.29-1.67-30.18s.56-20.1,1.67-30.34c1.08-10.06,3.08-19.55,5.93-28.22"/>
        <path class="cls-1" d="M1033.86,143.01c-6.53-1.66-13.52-2.5-20.78-2.5-13.92,0-26.19,2.18-36.45,6.49-10.42,4.37-19.13,10.7-25.89,18.82-6.57,7.89-11.84,16.93-15.66,26.86-3.75,9.74-6.46,20.27-8.07,31.28-1.58,10.86-2.38,21.93-2.38,32.88s.8,22.29,2.38,33.04c1.6,10.91,4.32,21.38,8.06,31.11,3.82,9.95,9.1,18.95,15.69,26.74,6.74,7.98,15.41,14.33,25.77,18.9,10.3,4.54,22.6,6.84,36.55,6.84,7.21,0,14.17-.78,20.69-2.32,6.79-1.61,13.16-4.53,18.92-8.67l2.41-1.73v-15.54l-9.07,6.26c-5.31,3.66-10.73,6.06-16.12,7.14-5.79,1.16-11.45,1.74-16.82,1.74-11.67,0-21.67-1.95-29.71-5.78-7.96-3.79-14.47-9.08-19.35-15.7-5.08-6.89-9.06-14.77-11.85-23.42-2.86-8.89-4.86-18.45-5.95-28.42-1.11-10.14-1.67-20.29-1.67-30.18s.56-20.09,1.67-30.34c1.08-10.06,3.08-19.55,5.93-28.22,2.79-8.46,6.78-16.25,11.86-23.15,4.87-6.62,11.38-11.9,19.35-15.7,8.06-3.84,18.05-5.79,29.71-5.79,5.37,0,11.03.59,16.82,1.74,5.42,1.09,10.89,3.41,16.23,6.91l8.96,5.86v-15.84l-2.81-1.68c-5.62-3.37-11.82-5.93-18.43-7.61"/>
        <path class="cls-1" d="M1482.54,359.51h0c-3.47.61-5.47.26-6.13-.22-.73-.53-2.78-2.38-6.12-8.11l-14.21-24.72c-3.08-5.49-6.32-10.23-9.63-14.1-3.32-3.88-7.26-6.94-11.72-9.12,1.38-.63,2.72-1.29,4.02-1.98,8.44-4.5,15.53-10.45,21.07-17.69,5.48-7.15,9.61-15.51,12.27-24.84,2.61-9.15,3.94-19.47,3.94-30.7s-1.66-22.73-4.93-32.76c-3.33-10.22-8.53-19.3-15.44-27-6.98-7.77-16.06-13.85-26.98-18.09-10.75-4.16-23.74-6.27-38.63-6.27h-55.02v10.79l3.04,1.64c1.3.7,2.06,1.63,2.45,2.99.46,1.63,1.02,5.1,1.02,12.35v170.54c-3.39,6.49-7.57,12.44-12.47,17.74-6.34,6.84-14.29,12.23-23.61,16.01-9.41,3.81-20.93,5.74-34.23,5.74-11.96,0-23.74-1.68-32.34-4.62-8.96-3.06-17.24-7.58-24.6-13.41-7.56-5.98-14.93-13.47-21.92-22.27-7.13-8.97-14.61-19.49-22.22-31.27-7.65-11.85-16.08-25.34-25.04-40.12l-16.23-21.19-4.4-5.75,64.31-76.03c2.96-3.51,5.6-6.09,7.85-7.64,2.06-1.43,4.09-2.38,6.05-2.83l3.29-.76.1.03c1.09.34,1.19.67,1.28.95.38,1.25.84,3.89.84,9.31v129.12c0,5.78-.62,8.12-.89,8.86-.22.61-.6,1.11-1.74,1.59l-3.56,1.48v10.58h94.96c3.3,0,6.1.1,8.32.29,2.17.19,4.02.43,5.48.7.71.13.93.35,1.01.42l1.69,1.69h6.64l15.26-26.16-9.91-6.6-3.31,4.19c-2.71,3.43-5.45,6.1-8.14,7.93-2.51,1.7-5.81,2.9-9.81,3.58-4.5.77-10.69,1.16-18.38,1.16h-59.54v-60.88h63.88c4.05,0,7.06.14,8.93.41.73.1,1.12.24,1.29.31.24.33.61.96,1.01,2.14l1.32,3.95h10.88v-26.13h-10.88l-1.32,3.96c-.41,1.22-.79,1.64-.79,1.65-.06.04-.54.3-1.81.49-1.88.27-4.78.41-8.62.41h-63.88v-74.81h63.57c5.01,0,9.02.24,11.92.7,2.38.38,4.31,1.01,5.58,1.81,1.36.86,2.77,2.26,4.19,4.15l2.5,3.34,10.85-3.62-9.55-22.29h-6.11l-1.23.61c-.99.5-2.14.96-3.42,1.39-1.1.36-2.67.65-4.55.81-2.18.19-4.98.29-8.32.29h-119.93v12.72l5.37.39c1.35.1,2.19.27,2.66.4-.03.42-.09.66-.11.72,0,0-.25.54-1.28,1.73l-89.05,104.74.17-92.94c0-7.27.55-10.72,1.02-12.35.44-1.56,1.27-2.7,2.6-3.59l2.57-1.72v-10.12h-31.08v10.38l2.91,1.67c1.52.87,2.34,1.86,2.68,3.19.42,1.67.91,5.21.91,12.54v173.39c0,7.02-.56,10.53-1.03,12.24-.4,1.46-1.15,2.42-2.43,3.1l-3.05,1.64v10.49h31.08v-10.36l-2.88-1.67c-1.2-.7-2-1.77-2.49-3.37-.52-1.67-1.13-5.11-1.13-12.05l.11-60.12,8.7-10.29,13.26-15.68,6.63,7.95,10.25,12.35c10.24,17.01,20.13,32.59,29.41,46.33,9.51,14.08,19.5,26.4,29.69,36.61,10.48,10.51,22.5,18.7,35.72,24.35,12.91,5.51,30.04,8.55,48.24,8.55,14.69,0,27.71-2.23,38.72-6.64,9.75-3.9,18.35-9.27,25.63-15.96h30.85v-10.8l-3.05-1.64c-1.29-.7-2.05-1.62-2.44-3-.46-1.61-1.02-5.07-1.02-12.34v-32.61h43.75c7.49,0,13.19.51,16.92,1.51,3.16.85,5.79,2.47,8.04,4.95,2.7,2.98,5.84,7.64,9.35,13.89l12.09,20.77c2.85,4.84,5.62,8.78,8.23,11.73,3.1,3.5,6.83,5.91,11.08,7.14,2.24.65,4.7.97,7.51.97,2.28,0,4.83-.22,7.56-.66l4.88-.78v-13.06l-6.78,1.18ZM1422.52,293.43c-9.17,3.72-21.25,5.61-35.91,5.61h-26.72v-142.31h30.13c12.56,0,23.2,1.82,31.63,5.42,8.25,3.52,14.94,8.47,19.88,14.69,5.06,6.37,8.82,13.91,11.19,22.41,2.43,8.74,3.66,18.43,3.66,28.79s-1.04,19.29-3.1,28.1c-1.97,8.45-5.43,16.01-10.29,22.45-4.71,6.24-11.59,11.24-20.47,14.84"/>
        <path class="cls-1" d="M176.78,155.62l4.93.74c4.17.63,5.64,1.69,5.99,2,.9.81,1.52,2.09,1.89,3.94.54,2.71.82,6.28.82,10.63v165.86l-107.21-170.83-12.09-19.26-3-4.79h-17.66v8.81l12.07,19.13v171.06c0,8.53-.85,12.11-1.35,13.49-.36.97-1.13,2.38-3.73,3.45l-3.59,1.47v10.91h34.49v-11.88l-4.78-.84c-2.5-.44-4.45-1.17-5.63-2.1-.8-.63-1.32-1.73-1.59-3.37-.46-2.76-.7-6.71-.7-11.74v-149.65l117.35,185.79h10.21v-206.12c0-5.41.52-9.71,1.51-12.42.68-1.87,1.88-3.08,3.89-3.9l3.58-1.48v-10.59h-35.42v11.7Z"/>
        <path class="cls-1" d="M68,93.19c-6.89,0-11.49-3.91-11.86-10.18h-5.78c.12,9.19,7.02,14.9,17.58,14.9s17.08-5.84,17.08-12.98c0-6.58-5.03-10.31-11.92-11.92l-7.7-1.74c-5.09-1.18-7.58-3.42-7.58-7.14,0-3.97,4.16-6.83,9.81-6.83,6.09,0,10.12,3.23,10.5,8.38h5.77c-.5-8.07-6.77-13.16-16.15-13.16s-15.9,5.09-15.9,12.11c0,6.65,5.47,10.43,12.11,11.99l6.46,1.49c5.15,1.18,8.63,3.04,8.63,7.2,0,4.72-3.91,7.89-11.05,7.89"/>
        <path class="cls-1" d="M97.37,84.07h19.5l4.97,12.92h6.27l-17.45-43.47h-6.83l-17.39,43.47h5.96l4.97-12.92ZM105.88,61.96l1.24-3.29,1.24,3.29,6.71,17.39h-15.9l6.71-17.39Z"/>
        <polygon class="cls-1" points="138.45 64.25 138.45 58.98 161.18 96.98 169.07 96.98 169.07 53.51 163.36 53.51 163.36 85.12 163.36 90.59 141.31 53.51 132.8 53.51 132.8 96.98 138.45 96.98 138.45 64.25"/>
        <polygon class="cls-1" points="193.04 96.98 198.69 96.98 198.69 77.23 220.3 77.23 220.3 72.45 198.69 72.45 198.69 58.23 221.35 58.23 221.35 53.51 193.04 53.51 193.04 96.98"/>
        <path class="cls-1" d="M232.57,77.98h10.68c6.46,0,9.13,2.11,9.13,9.01v10h5.65v-11.55c0-5.71-2.98-9.25-7.08-9.94,3.91-1.18,8.01-5.09,8.01-10.56,0-7.33-5.28-11.43-13.6-11.43h-18.44v43.47h5.65v-19ZM232.57,58.23h11.43c5.84,0,9.19,2.49,9.19,7.39s-3.35,7.58-9.19,7.58h-11.43v-14.97Z"/>
        <path class="cls-1" d="M273.23,84.07h19.5l4.97,12.92h6.27l-17.45-43.47h-6.83l-17.39,43.47h5.96l4.97-12.92ZM281.74,61.96l1.24-3.29,1.24,3.29,6.71,17.39h-15.9l6.71-17.39Z"/>
        <polygon class="cls-1" points="314.31 64.25 314.31 58.98 337.04 96.98 344.93 96.98 344.93 53.51 339.22 53.51 339.22 85.12 339.22 90.59 317.17 53.51 308.66 53.51 308.66 96.98 314.31 96.98 314.31 64.25"/>
        <path class="cls-1" d="M373.01,97.92c10.31,0,17.51-5.71,18.69-14.97h-5.9c-1.18,6.15-5.78,10.19-12.92,10.19-8.63,0-14.72-7.14-14.72-18.14s5.9-17.7,14.72-17.7c7.08,0,11.43,3.85,12.54,10.25h6.21c-.81-8.51-8.01-15.03-18.51-15.03-11.99,0-20.93,8.94-20.93,22.48,0,14.22,8.38,22.92,20.8,22.92"/>
        <rect class="cls-1" x="398.68" y="53.51" width="5.65" height="43.47"/>
        <path class="cls-1" d="M428.58,93.19c-6.89,0-11.49-3.91-11.86-10.18h-5.78c.12,9.19,7.02,14.9,17.58,14.9s17.08-5.84,17.08-12.98c0-6.58-5.03-10.31-11.92-11.92l-7.7-1.74c-5.09-1.18-7.58-3.42-7.58-7.14,0-3.97,4.16-6.83,9.81-6.83,6.09,0,10.12,3.23,10.5,8.38h5.77c-.5-8.07-6.77-13.16-16.15-13.16s-15.9,5.09-15.9,12.11c0,6.65,5.47,10.43,12.11,11.99l6.46,1.49c5.15,1.18,8.63,3.04,8.63,7.2,0,4.72-3.91,7.89-11.05,7.89"/>
        <path class="cls-1" d="M470.51,97.92c10.31,0,17.51-5.71,18.69-14.97h-5.9c-1.18,6.15-5.78,10.19-12.92,10.19-8.63,0-14.72-7.14-14.72-18.14s5.9-17.7,14.72-17.7c7.08,0,11.43,3.85,12.54,10.25h6.21c-.81-8.51-8.01-15.03-18.51-15.03-11.99,0-20.93,8.94-20.93,22.48,0,14.22,8.38,22.92,20.8,22.92"/>
        <path class="cls-1" d="M513.94,97.92c11.68,0,20.62-9.01,20.62-22.67s-8.82-22.73-20.62-22.73-20.62,9.07-20.62,22.73,8.94,22.67,20.62,22.67M513.94,57.3c8.69,0,14.66,6.83,14.66,17.95s-5.84,17.95-14.66,17.95-14.66-6.83-14.66-17.95,6.02-17.95,14.66-17.95"/>
        <path class="cls-1" d="M587.66,84.75c0-5.4-3.17-9.13-8.32-10.74,3.91-1.24,7.27-4.84,7.27-9.56,0-7.52-5.65-10.93-13.79-10.93h-16.95v43.47h15.34c8.51,0,16.46-2.55,16.46-12.24M561.51,58.23h10.93c6.09,0,8.38,2.79,8.38,6.64,0,4.41-3.17,6.96-8.82,6.96h-10.49v-13.6ZM561.51,76.61h10.37c7.7,0,10,3.35,10,7.82,0,5.15-2.98,7.76-9.75,7.76h-10.62v-15.59Z"/>
        <path class="cls-1" d="M600.34,84.07h19.5l4.97,12.92h6.27l-17.45-43.47h-6.83l-17.39,43.47h5.96l4.97-12.92ZM608.85,61.96l1.24-3.29,1.24,3.29,6.71,17.39h-15.9l6.71-17.39Z"/>
        <polygon class="cls-1" points="664.09 92.2 641.43 92.2 641.43 53.51 635.77 53.51 635.77 96.98 664.09 96.98 664.09 92.2"/>
        <polygon class="cls-1" points="697.34 92.2 674.67 92.2 674.67 53.51 669.02 53.51 669.02 96.98 697.34 96.98 697.34 92.2"/>
        <polygon class="cls-1" points="731.27 92.2 707.92 92.2 707.92 77.24 729.53 77.24 729.53 72.45 707.92 72.45 707.92 58.23 730.52 58.23 730.52 53.51 702.27 53.51 702.27 96.98 731.27 96.98 731.27 92.2"/>
        <polygon class="cls-1" points="749.57 96.98 755.22 96.98 755.22 58.23 770.19 58.23 770.19 53.51 734.54 53.51 734.54 58.23 749.57 58.23 749.57 96.98"/>
        <polygon class="cls-1" points="895.41 76.55 918.52 76.55 918.52 96.98 924.17 96.98 924.17 53.51 918.52 53.51 918.52 71.77 895.41 71.77 895.41 53.51 889.76 53.51 889.76 96.98 895.41 96.98 895.41 76.55"/>
        <polygon class="cls-1" points="962.78 92.2 939.43 92.2 939.43 77.24 961.04 77.24 961.04 72.46 939.43 72.46 939.43 58.23 962.03 58.23 962.03 53.51 933.78 53.51 933.78 96.99 962.78 96.99 962.78 92.2"/>
        <polygon class="cls-1" points="997.42 92.2 974.75 92.2 974.75 53.51 969.1 53.51 969.1 96.99 997.42 96.99 997.42 92.2"/>
        <path class="cls-1" d="M1018.84,97.92c6.15,0,11.43-3.04,13.79-6.96v6.02h4.66v-22.73h-18.82v4.78h13.66v.81c0,8.82-5.15,13.35-13.1,13.35-8.82,0-14.84-7.52-14.84-17.7,0-12.05,6.46-18.2,15.15-18.2,6.15,0,10.87,3.6,11.74,8.82h6.02c-.99-8.01-8.2-13.6-17.76-13.6-11.3,0-21.11,8.01-21.11,22.98,0,12.67,7.89,22.42,20.62,22.42"/>
        <rect class="cls-1" x="1046.11" y="53.51" width="5.65" height="43.47"/>
        <polygon class="cls-1" points="1085.97 96.99 1091.62 96.99 1091.62 58.23 1106.59 58.23 1106.59 53.51 1070.94 53.51 1070.94 58.23 1085.97 58.23 1085.97 96.99"/>
        <path class="cls-1" d="M1128.1,97.92c11.67,0,20.62-9.01,20.62-22.67s-8.82-22.73-20.62-22.73-20.62,9.07-20.62,22.73,8.94,22.67,20.62,22.67M1128.1,57.3c8.69,0,14.66,6.83,14.66,17.95s-5.84,17.95-14.66,17.95-14.66-6.83-14.66-17.95,6.03-17.95,14.66-17.95"/>
        <polygon class="cls-1" points="1161.5 64.32 1161.5 58.98 1176.34 96.98 1182.67 96.98 1197.45 58.91 1197.45 64.32 1197.45 96.98 1203.04 96.98 1203.04 53.51 1194.35 53.51 1181.43 86.61 1179.63 91.33 1177.77 86.61 1164.73 53.51 1155.91 53.51 1155.91 96.98 1161.5 96.98 1161.5 64.32"/>
        <path class="cls-1" d="M1218.76,84.07h19.5l4.97,12.92h6.27l-17.45-43.47h-6.83l-17.39,43.47h5.96l4.97-12.92ZM1227.26,61.96l1.24-3.29,1.24,3.29,6.71,17.39h-15.9l6.71-17.39Z"/>
        <path class="cls-1" d="M1268.21,93.2c-6.89,0-11.49-3.91-11.86-10.18h-5.78c.12,9.19,7.02,14.9,17.58,14.9s17.08-5.84,17.08-12.98c0-6.58-5.03-10.31-11.92-11.92l-7.7-1.74c-5.09-1.18-7.58-3.42-7.58-7.14,0-3.97,4.16-6.83,9.81-6.83,6.09,0,10.12,3.23,10.49,8.39h5.78c-.5-8.07-6.77-13.17-16.15-13.17s-15.9,5.09-15.9,12.11c0,6.65,5.47,10.43,12.11,11.99l6.46,1.49c5.15,1.18,8.63,3.04,8.63,7.2,0,4.72-3.91,7.89-11.05,7.89"/>
        <path class="cls-1" d="M1307.04,93.2c-6.89,0-11.49-3.91-11.86-10.18h-5.78c.12,9.19,7.02,14.9,17.58,14.9s17.08-5.84,17.08-12.98c0-6.58-5.03-10.31-11.92-11.92l-7.7-1.74c-5.09-1.18-7.58-3.42-7.58-7.14,0-3.97,4.16-6.83,9.81-6.83,6.09,0,10.12,3.23,10.49,8.39h5.78c-.5-8.07-6.77-13.17-16.15-13.17s-15.9,5.09-15.9,12.11c0,6.65,5.47,10.43,12.11,11.99l6.46,1.49c5.15,1.18,8.63,3.04,8.63,7.2,0,4.72-3.91,7.89-11.05,7.89"/>
        <path class="cls-1" d="M1348.79,97.92c11.67,0,20.62-9.01,20.62-22.67s-8.82-22.73-20.62-22.73-20.62,9.07-20.62,22.73,8.94,22.67,20.62,22.67M1348.79,57.3c8.69,0,14.66,6.83,14.66,17.95s-5.84,17.95-14.66,17.95-14.66-6.83-14.66-17.95,6.03-17.95,14.66-17.95"/>
        <polygon class="cls-1" points="1382.25 64.26 1382.25 58.98 1404.98 96.99 1412.87 96.99 1412.87 53.51 1407.15 53.51 1407.15 85.12 1407.15 90.59 1385.1 53.51 1376.6 53.51 1376.6 96.99 1382.25 96.99 1382.25 64.26"/>
        <path class="cls-1" d="M1428.05,60.9v-7.39h-6.52v6.83h2.92v.81c0,3.42-1.49,4.78-3.1,5.34v3.1c3.54-.31,6.71-2.92,6.71-8.7"/>
        <path class="cls-1" d="M1450.56,93.2c-6.89,0-11.49-3.91-11.86-10.18h-5.78c.12,9.19,7.02,14.9,17.58,14.9s17.08-5.84,17.08-12.98c0-6.58-5.03-10.31-11.92-11.92l-7.7-1.74c-5.09-1.18-7.58-3.42-7.58-7.14,0-3.97,4.16-6.83,9.81-6.83,6.09,0,10.12,3.23,10.49,8.39h5.78c-.5-8.07-6.77-13.17-16.15-13.17s-15.9,5.09-15.9,12.11c0,6.65,5.47,10.43,12.11,11.99l6.46,1.49c5.15,1.18,8.63,3.04,8.63,7.2,0,4.72-3.91,7.89-11.05,7.89"/>
        <path class="cls-1" d="M831.9,89.33c8.6,0,15.58-6.97,15.58-15.58s-6.97-15.57-15.58-15.57-15.58,6.97-15.58,15.57,6.97,15.58,15.58,15.58"/>
        <polygon class="cls-1" points="920.63 417.67 967.02 417.67 967.02 426.83 931.56 426.83 931.56 446.52 965.54 446.52 965.54 455.88 931.56 455.88 931.56 477.35 968.39 477.35 968.39 486.6 920.63 486.6 920.63 417.67"/>
        <path class="cls-1" d="M995.05,450.66l-23.44-32.99h13.1l13.69,20.29,3.15,4.92c.99-1.68,2.17-3.35,3.25-4.92l13.49-20.29h12.8l-23.44,32.89,25.8,36.04h-13.29l-15.76-23.34c-1.08-1.48-2.17-3.25-3.15-4.92l-3.25,5.02-15.86,23.24h-12.8l25.7-35.95Z"/>
        <path class="cls-1" d="M1036.04,417.67h27.97c13.2,0,24.42,5.22,24.42,20.09s-11.23,20.09-24.42,20.09h-17.04v28.76h-10.93v-68.94ZM1077.21,437.76c0-6.7-3.74-10.93-13.3-10.93h-16.94v21.86h16.94c9.45,0,13.3-4.23,13.3-10.93"/>
        <polygon class="cls-1" points="1092.17 417.67 1138.56 417.67 1138.56 426.83 1103.11 426.83 1103.11 446.52 1137.08 446.52 1137.08 455.88 1103.11 455.88 1103.11 477.35 1139.94 477.35 1139.94 486.6 1092.17 486.6 1092.17 417.67"/>
        <path class="cls-1" d="M1145.93,417.67h29.94c13,0,21.86,6.3,21.86,18.12,0,9.06-6.5,14.87-12.9,16.74,7.19,1.28,11.62,6.89,11.62,15.86v18.22h-10.93v-16.35c0-9.55-3.64-12.7-12.9-12.7h-15.76v29.05h-10.93v-68.94ZM1186.5,437.46c0-6.99-4.53-10.64-13-10.64h-16.64v21.37h16.64c8.47,0,13-3.74,13-10.73"/>
        <rect class="cls-1" x="1205.82" y="417.67" width="10.93" height="68.94"/>
        <polygon class="cls-1" points="1226.91 417.67 1273.29 417.67 1273.29 426.83 1237.84 426.83 1237.84 446.52 1271.81 446.52 1271.81 455.88 1237.84 455.88 1237.84 477.35 1274.67 477.35 1274.67 486.6 1226.91 486.6 1226.91 417.67"/>
        <path class="cls-1" d="M1280.66,417.67h16.45l32.4,55.35c-.2-2.96-.2-6.3-.2-9.55v-45.8h10.93v68.94h-14.67l-34.17-58.3c.2,3.45.2,6.11.2,9.06v49.24h-10.93v-68.94Z"/>
        <path class="cls-1" d="M1346.86,451.64c0-21.76,14.48-35.65,33.78-35.65,16.74,0,28.46,9.95,30.04,24.92h-11.62c-1.57-9.55-7.98-15.66-18.61-15.66-13.1,0-22.16,9.95-22.16,26.39s9.16,27.28,21.96,27.28c10.83,0,17.82-6.5,19.5-15.95h11.13c-1.77,15.36-13.3,25.21-30.73,25.21-20.09,0-33.29-13.49-33.29-36.54"/>
        <polygon class="cls-1" points="1416.96 417.67 1463.34 417.67 1463.34 426.83 1427.89 426.83 1427.89 446.52 1461.87 446.52 1461.87 455.88 1427.89 455.88 1427.89 477.35 1464.72 477.35 1464.72 486.6 1416.96 486.6 1416.96 417.67"/>
        <polygon class="cls-1" points="76.53 426.83 53.09 426.83 53.09 417.67 110.8 417.67 110.8 426.83 87.46 426.83 87.46 486.6 76.53 486.6 76.53 426.83"/>
        <polygon class="cls-1" points="114.05 417.67 124.98 417.67 124.98 446.23 159.25 446.23 159.25 417.67 170.18 417.67 170.18 486.6 159.25 486.6 159.25 455.48 124.98 455.48 124.98 486.6 114.05 486.6 114.05 417.67"/>
        <polygon class="cls-1" points="180.52 417.67 226.91 417.67 226.91 426.83 191.46 426.83 191.46 446.52 225.43 446.52 225.43 455.88 191.46 455.88 191.46 477.35 228.29 477.35 228.29 486.6 180.52 486.6 180.52 417.67"/>
        <rect class="cls-1" x="255.07" y="417.67" width="10.93" height="68.94"/>
        <polygon class="cls-1" points="276.15 417.67 293.49 417.67 312.59 468.78 314.95 475.67 317.22 468.78 335.93 417.67 352.97 417.67 352.97 486.6 342.33 486.6 342.33 437.46 342.43 428.3 321.26 486.6 308.36 486.6 286.59 428.3 286.79 437.46 286.79 486.6 276.15 486.6 276.15 417.67"/>
        <polygon class="cls-1" points="363.42 417.67 380.75 417.67 399.86 468.78 402.22 475.67 404.49 468.78 423.2 417.67 440.24 417.67 440.24 486.6 429.6 486.6 429.6 437.46 429.7 428.3 408.53 486.6 395.62 486.6 373.86 428.3 374.06 437.46 374.06 486.6 363.42 486.6 363.42 417.67"/>
        <polygon class="cls-1" points="450.69 417.67 497.07 417.67 497.07 426.83 461.62 426.83 461.62 446.52 495.6 446.52 495.6 455.88 461.62 455.88 461.62 477.35 498.45 477.35 498.45 486.6 450.69 486.6 450.69 417.67"/>
        <path class="cls-1" d="M504.45,417.67h29.94c13,0,21.86,6.3,21.86,18.12,0,9.06-6.5,14.87-12.9,16.74,7.19,1.28,11.62,6.89,11.62,15.86v18.22h-10.93v-16.35c0-9.55-3.64-12.7-12.9-12.7h-15.76v29.05h-10.93v-68.94ZM545.02,437.46c0-6.99-4.53-10.64-13-10.64h-16.64v21.37h16.64c8.47,0,13-3.74,13-10.73"/>
        <path class="cls-1" d="M559.34,463.66h11.32c.59,9.75,8.17,15.36,18.22,15.36,9.45,0,15.66-3.94,15.66-11.03,0-5.91-4.63-8.77-12.51-10.44l-11.03-2.36c-10.64-2.27-19.2-8.47-19.2-19.2,0-11.72,10.93-19.99,26-19.99,16.15,0,25.9,8.67,26.69,21.76h-11.33c-.39-7.29-5.91-12.6-15.76-12.6-8.27,0-14.48,3.84-14.48,9.85,0,5.61,4.33,8.37,11.82,9.95l11.92,2.56c10.83,2.27,19.11,8.27,19.11,19.3,0,12.11-9.95,21.37-27.28,21.37s-28.46-9.55-29.15-24.52"/>
        <rect class="cls-1" x="622.26" y="417.67" width="10.93" height="68.94"/>
        <path class="cls-1" d="M635.92,417.67h12.11l18.02,49.83c1.18,3.15,2.17,5.91,3.15,8.96.89-2.95,1.97-5.81,3.15-8.96l18.02-49.83h11.82l-26.59,68.94h-13.49l-26.2-68.94Z"/>
        <polygon class="cls-1" points="705 417.67 751.38 417.67 751.38 426.83 715.93 426.83 715.93 446.52 749.91 446.52 749.91 455.88 715.93 455.88 715.93 477.35 752.76 477.35 752.76 486.6 705 486.6 705 417.67"/>
      </g>
    </g>
  </g>
</svg>